<?xml version="1.0" encoding="utf-8"?>
<!-- Generator: Adobe Illustrator 22.1.0, SVG Export Plug-In . SVG Version: 6.00 Build 0)  -->
<svg version="1.1" id="Layer_1" xmlns="http://www.w3.org/2000/svg" xmlns:xlink="http://www.w3.org/1999/xlink" x="0px" y="0px"
	 viewBox="0 0 281 54.9" style="enable-background:new 0 0 281 54.9;" xml:space="preserve">
<style type="text/css">
	.st0{stroke:#000000;stroke-miterlimit:10;}
</style>
<path class="st0" d="M37,30.2c0,0,0.5,0.7,1.6-1.1c1.1-1.8,1.5-2.6,1.1-5.3s-1.3-3.2-3.1-4.7c-1.8-1.5-5.5-1.6-6.7-1.2
	c0,0-5.5,0.7-7.1,5.2c-1.6,4.6-1.1,6-0.4,8.1c1.3,4.3,4,6.3,5.3,7.2s3.2,2,7.6,1.7s7.8-0.7,10.4-2.8c5.1-3.9,7.1-7.3,7.4-11.4
	c0.3-5.1,1.2-18.7-17.2-21.1c-7.8-1-21-1.2-28.8,10c-5.5,7.8-4.5,15.8-4.5,15.8s0.2,6.9,5.3,12.3s9.7,8.3,17.9,10s16.7,1.2,20.8,1.1
	c4.1-0.2,21.2-3.4,23.6-4c2.4-0.6,24.7-7.2,24.7-7.2s15.9-5.3,20.1-6.6c4.2-1.4,15-5.1,20.4-7.1s36.4-11.3,36.4-11.3s8-2.8,28.6-8.1
	c10.1-2.6,14.4-3.3,18.3-3.9c3.7-0.5,6.6-0.6,13.5-0.3c13.3,0.6,7.3-0.1,20.8,2c13.5,2.1,17.9,5.8,20.9,10.9c1,1.7,2.1,5.2,2.3,7.7
	c0.1,0.9,0,5.8-4.1,8.7c-2,1.4-3.4,1.9-4.7,2.3c-1.5,0.4-3,0.3-5.1-0.1c-4.2-0.8-7-4.8-7-4.8s-1.6-2.1-1.9-3.9
	c-0.4-1.9,0.1-3.3,0.9-4.3c0.6-0.7,1.1-1.5,3.2-2.6c2.2-1.1,6.1-0.4,6.1-0.4l2.1,0.7l1.9,1.1c0,0,1,0.7,1.2,0.9c0.5,0.3,1-0.3,1-0.5
	c0-0.7-1.2-1.9-1.8-2.4c-0.7-0.7-1.2-1.2-3.4-1.9c-1.7-0.5-4.1-1-6.8-0.4c-1.3,0.3-2.2,0-4.6,1.8c-1.6,1.2-3.2,1.9-3.5,7.2
	c-0.2,4.7,3.3,7.8,4.2,8.5c0,0,2.3,1.8,3.4,2.3c1.4,0.7,4.1,1.7,6.7,1.7c1.4,0,3.9-0.2,5.5-0.8c1.5-0.6,2.4-1,3.4-1.6
	c1.4-0.8,3.5-2.8,4.8-6.8c1.4-4,1.3-8.6-0.1-12c-2.8-7.1-8.3-10.3-11.2-11.4c-2.8-1.1-11.8-3.7-23.5-4.5s-16.7-1-27.5,0
	C209.1,2.9,194,7.2,190,8.4s-25.1,7.3-25.1,7.3l-18.1,6.2l-20.1,6.6l-15.6,5.1c0,0-10.8,3.1-16.5,5c-5.3,1.8-19.7,6.4-24.4,7.5
	s-16.5,3.6-25,3.9S29,49.5,22.2,46.4s-8.8-12.2-8.8-12.2s-1.1-5.1-1.4-7.9s1.6-8.6,3.2-10.7C19,10.7,25.9,9,25.9,9
	c1-0.5,4.5-0.8,7.6-0.1c2.6,0.6,3.9,1.5,5.1,2.1c0.9,0.4,3.2,2.3,3.2,2.3s2.2,2,2.6,2.9c0.4,0.9,1.5,3.1,1.6,6.1
	c0.2,3,0.4,4.9-1,7.4c-1.4,2.5-2.3,4.5-6.3,5.4c-4.2,1-5.2,0.7-8.1-0.7c-5.9-3-4.8-7.9-3.6-10.3c0.8-1.7,2.5-3.8,5.3-3.4
	c2.3,0.4,4.2-0.1,5.3,2c1.4,2.8,0.5,3.4,0,5C37.2,28.5,37,30.2,37,30.2z"/>
<g id="Layer_2">
	<g id="Layer_3">
	</g>
</g>
</svg>
