<?xml version="1.0" encoding="utf-8"?>
<!-- Generator: Adobe Illustrator 22.1.0, SVG Export Plug-In . SVG Version: 6.00 Build 0)  -->
<svg version="1.1" id="Layer_1" xmlns="http://www.w3.org/2000/svg" xmlns:xlink="http://www.w3.org/1999/xlink" x="0px" y="0px"
	 viewBox="0 0 281 54.9" style="enable-background:new 0 0 281 54.9;" xml:space="preserve">
<style type="text/css">
	.st0{stroke:#000000;stroke-miterlimit:10;}
</style>
<path class="st0" d="M244.1,30.2c0,0-0.5,0.7-1.6-1.1s-1.5-2.6-1.1-5.3s1.3-3.2,3.1-4.7c1.8-1.5,5.5-1.6,6.7-1.2
	c0,0,5.5,0.7,7.1,5.2c1.6,4.6,1.1,6,0.4,8.1c-1.3,4.3-4,6.3-5.3,7.2s-3.2,2-7.6,1.7c-4.5-0.3-7.8-0.7-10.4-2.8
	c-5.1-3.9-7.1-7.3-7.4-11.4c-0.3-5.1-1.2-18.7,17.2-21.1c7.8-1,21-1.2,28.8,10c5.5,7.8,4.5,15.8,4.5,15.8s-0.2,6.9-5.3,12.3
	s-9.7,8.3-17.9,10c-8.2,1.6-16.7,1.2-20.8,1.1c-4.1-0.2-21.2-3.4-23.6-4c-2.4-0.6-24.7-7.2-24.7-7.2s-15.9-5.3-20.1-6.6
	c-4.2-1.4-15-5.1-20.4-7.1c-5.4-2-36.4-11.3-36.4-11.3s-8-2.8-28.6-8.1C70.7,6.7,66.3,5.9,62.5,5.4C58.8,4.9,55.9,4.8,49,5.1
	c-13.3,0.6-7.3-0.1-20.8,2S10.3,12.9,7.3,18c-1,1.7-2.1,5.2-2.3,7.7c-0.1,0.9,0,5.8,4.1,8.7c2,1.4,3.4,1.9,4.7,2.3
	c1.5,0.4,3,0.3,5.1-0.1c4.2-0.8,7-4.8,7-4.8s1.6-2.1,1.9-3.9c0.4-1.9-0.1-3.3-0.9-4.3c-0.6-0.7-1.1-1.5-3.2-2.6s-6.1-0.4-6.1-0.4
	l-2.1,0.7l-1.9,1.1c0,0-1,0.7-1.2,0.9c-0.5,0.3-1-0.3-1-0.5c0-0.7,1.2-1.9,1.8-2.4c0.7-0.7,1.2-1.2,3.4-1.9c1.7-0.5,4.1-1,6.8-0.4
	c1.3,0.3,2.2,0,4.6,1.8c1.6,1.2,3.2,1.9,3.5,7.2c0.2,4.7-3.3,7.8-4.2,8.5c0,0-2.3,1.8-3.4,2.3c-1.4,0.7-4.1,1.7-6.7,1.7
	c-1.4,0-3.9-0.2-5.5-0.8c-1.5-0.6-2.4-1-3.4-1.6c-1.4-0.8-3.5-2.8-4.8-6.8s-1.3-8.6,0.1-12C6.3,11.2,11.8,8,14.7,6.9
	c2.8-1.1,11.8-3.7,23.5-4.5s16.7-1,27.5,0C71.9,2.9,87,7.2,91,8.4c4,1.2,25.1,7.3,25.1,7.3l18.1,6.2l20.1,6.6l15.6,5.1
	c0,0,10.8,3.1,16.5,5c5.3,1.8,19.7,6.4,24.4,7.5c4.7,1.1,16.5,3.6,25,3.9c8.5,0.3,16.2-0.4,22.9-3.6c6.7-3.2,8.8-12.2,8.8-12.2
	s1.1-5.1,1.4-7.9s-1.6-8.6-3.2-10.7c-3.7-4.8-10.6-6.5-10.6-6.5c-1-0.5-4.5-0.8-7.6-0.1c-2.6,0.6-3.9,1.5-5.1,2.1
	c-0.9,0.4-3.2,2.3-3.2,2.3s-2.2,2-2.6,2.9c-0.4,0.9-1.5,3.1-1.6,6.1s-0.4,4.9,1,7.4s2.3,4.5,6.3,5.4c4.2,1,5.2,0.7,8.1-0.7
	c5.9-3,4.8-7.9,3.6-10.3c-0.8-1.7-2.5-3.8-5.3-3.4c-2.3,0.4-4.2-0.1-5.3,2c-1.4,2.8-0.5,3.4,0,5C243.8,28.5,244.1,30.2,244.1,30.2z"
	/>
<g id="Layer_2">
	<g id="Layer_3">
	</g>
</g>
</svg>
